<svg width="23" height="23" viewBox="0 0 23 23" fill="none" xmlns="http://www.w3.org/2000/svg">
<rect width="23" height="23" rx="11.5" fill="#FF8A3D"/>
<path d="M11.5 5.25C8.05625 5.25 5.25 8.05625 5.25 11.5C5.25 14.9438 8.05625 17.75 11.5 17.75C14.9438 17.75 17.75 14.9438 17.75 11.5C17.75 8.05625 14.9438 5.25 11.5 5.25ZM14 11.9688H11.9688V14C11.9688 14.2562 11.7562 14.4688 11.5 14.4688C11.2438 14.4688 11.0312 14.2562 11.0312 14V11.9688H9C8.74375 11.9688 8.53125 11.7562 8.53125 11.5C8.53125 11.2438 8.74375 11.0312 9 11.0312H11.0312V9C11.0312 8.74375 11.2438 8.53125 11.5 8.53125C11.7562 8.53125 11.9688 8.74375 11.9688 9V11.0312H14C14.2562 11.0312 14.4688 11.2438 14.4688 11.5C14.4688 11.7562 14.2562 11.9688 14 11.9688Z" fill="white"/>
</svg>
