<svg width="17" height="16" viewBox="0 0 17 16" fill="none" xmlns="http://www.w3.org/2000/svg">
<path d="M5.14901 1.99414C3.06331 1.99414 1.37256 3.63548 1.37256 5.66081C1.37256 7.78349 2.61776 9.78615 4.67695 11.6195C5.37978 12.2448 6.13651 12.7935 6.887 13.2862C7.15004 13.4582 7.39606 13.6142 7.61661 13.7442C7.75105 13.8235 7.83969 13.8808 7.89551 13.9108C8.10287 14.0228 8.37478 14.0228 8.58214 13.9108C8.63796 13.8808 8.72661 13.8235 8.86105 13.7442C9.08159 13.6142 9.32761 13.4582 9.59066 13.2862C10.3411 12.7935 11.0979 12.2448 11.8007 11.6195C13.8599 9.78615 15.1051 7.78349 15.1051 5.66081C15.1051 3.63548 13.4143 1.99414 11.3286 1.99414C10.1441 1.99414 8.98752 2.62082 8.26025 3.53548C7.5511 2.60482 6.3986 1.99414 5.14901 1.99414ZM5.14901 3.32748C5.9825 3.32748 6.76086 3.73815 7.20889 4.36882C7.25242 4.43015 7.59566 4.92015 7.65945 5.01482C7.92511 5.41015 8.5178 5.42216 8.79671 5.03549C8.86455 4.94149 9.2218 4.45348 9.26877 4.39014C9.73643 3.75547 10.555 3.32748 11.3286 3.32748C12.6559 3.32748 13.7318 4.37215 13.7318 5.66081C13.7318 7.32949 12.6597 9.01415 10.8566 10.6195C10.2076 11.1968 9.51602 11.7235 8.8182 12.1815C8.6072 12.3202 8.419 12.4282 8.23883 12.5355C8.05866 12.4282 7.87045 12.3202 7.65945 12.1815C6.96163 11.7235 6.27006 11.1968 5.62106 10.6195C3.81798 9.01415 2.74581 7.32949 2.74581 5.66081C2.74581 4.37215 3.82176 3.32748 5.14901 3.32748Z" fill="#191919"/>
</svg>
