<svg width="23" height="23" viewBox="0 0 23 23" fill="none" xmlns="http://www.w3.org/2000/svg">
<rect width="23" height="23" rx="11.5" fill="#FF8A3D"/>
<path d="M17.9748 9.16875L17.7935 7.4375C17.531 5.55 16.6748 4.78125 14.8435 4.78125H13.3685H12.4435H10.5435H9.61853H8.11853C6.28103 4.78125 5.43103 5.55 5.16228 7.45625L4.99353 9.175C4.93103 9.84375 5.11228 10.4937 5.50603 11C5.98103 11.6187 6.71228 11.9688 7.52478 11.9688C8.31228 11.9688 9.06853 11.575 9.54353 10.9437C9.96853 11.575 10.6935 11.9688 11.4998 11.9688C12.306 11.9688 13.0123 11.5937 13.4435 10.9687C13.9248 11.5875 14.6685 11.9688 15.4435 11.9688C16.2748 11.9688 17.0248 11.6 17.4935 10.95C17.8685 10.45 18.0373 9.81875 17.9748 9.16875Z" fill="white"/>
<path d="M11.0939 14.4127C10.3002 14.4939 9.7002 15.1689 9.7002 15.9689V17.6814C9.7002 17.8502 9.8377 17.9877 10.0064 17.9877H12.9877C13.1564 17.9877 13.2939 17.8502 13.2939 17.6814V16.1877C13.3002 14.8814 12.5314 14.2627 11.0939 14.4127Z" fill="white"/>
<path d="M17.3561 12.9998V14.8623C17.3561 16.5873 15.9561 17.9873 14.2311 17.9873C14.0623 17.9873 13.9248 17.8498 13.9248 17.6811V16.1873C13.9248 15.3873 13.6811 14.7623 13.2061 14.3373C12.7873 13.9561 12.2186 13.7686 11.5123 13.7686C11.3561 13.7686 11.1998 13.7748 11.0311 13.7936C9.91855 13.9061 9.0748 14.8436 9.0748 15.9686V17.6811C9.0748 17.8498 8.9373 17.9873 8.76855 17.9873C7.04355 17.9873 5.64355 16.5873 5.64355 14.8623V13.0123C5.64355 12.5748 6.0748 12.2811 6.48105 12.4248C6.6498 12.4811 6.81855 12.5248 6.99355 12.5498C7.06855 12.5623 7.1498 12.5748 7.2248 12.5748C7.3248 12.5873 7.4248 12.5936 7.5248 12.5936C8.2498 12.5936 8.9623 12.3248 9.5248 11.8623C10.0623 12.3248 10.7623 12.5936 11.4998 12.5936C12.2436 12.5936 12.9311 12.3373 13.4686 11.8748C14.0311 12.3311 14.7311 12.5936 15.4436 12.5936C15.5561 12.5936 15.6686 12.5873 15.7748 12.5748C15.8498 12.5686 15.9186 12.5623 15.9873 12.5498C16.1811 12.5248 16.3561 12.4686 16.5311 12.4123C16.9373 12.2748 17.3561 12.5748 17.3561 12.9998Z" fill="white"/>
</svg>
