<svg width="23" height="23" viewBox="0 0 23 23" fill="none" xmlns="http://www.w3.org/2000/svg">
<rect width="23" height="23" rx="11.5" fill="#FF8A3D"/>
<path d="M15.25 5.25H7.75C6.7125 5.25 5.875 6.08125 5.875 7.10625V13.925C5.875 14.95 6.7125 15.7813 7.75 15.7813H8.225C8.725 15.7813 9.2 15.975 9.55 16.325L10.6188 17.3812C11.1063 17.8625 11.9 17.8625 12.3875 17.3812L13.4563 16.325C13.8063 15.975 14.2875 15.7813 14.7812 15.7813H15.25C16.2875 15.7813 17.125 14.95 17.125 13.925V7.10625C17.125 6.08125 16.2875 5.25 15.25 5.25ZM11.675 13.35C11.5812 13.3813 11.425 13.3813 11.325 13.35C10.5125 13.0688 8.6875 11.9125 8.6875 9.94375C8.69375 9.075 9.3875 8.375 10.25 8.375C10.7625 8.375 11.2125 8.61875 11.5 9C11.7875 8.61875 12.2375 8.375 12.75 8.375C13.6125 8.375 14.3125 9.075 14.3125 9.94375C14.3063 11.9125 12.4875 13.0688 11.675 13.35Z" fill="white"/>
</svg>
