<svg width="17" height="16" viewBox="0 0 17 16" fill="none" xmlns="http://www.w3.org/2000/svg">
<path d="M8.72808 1.33301C4.93584 1.33301 1.86182 4.31768 1.86182 7.99968C1.86182 8.84768 2.04171 9.70701 2.3555 10.479L2.89176 11.541C3.23164 12.227 3.11217 12.8737 2.65556 13.6664C2.40357 14.105 2.71804 14.6337 3.23507 14.6457C3.93337 14.661 5.09377 14.445 5.98158 14.125C6.80141 14.4924 7.8135 14.6664 8.72808 14.6664C12.5203 14.6664 15.5944 11.6817 15.5944 7.99968C15.5944 4.31768 12.5203 1.33301 8.72808 1.33301ZM8.72808 2.66634C11.7616 2.66634 14.2211 5.05434 14.2211 7.99968C14.2211 10.945 11.7616 13.333 8.72808 13.333C7.93846 13.333 6.94629 13.1357 6.32489 12.8123C6.14087 12.7163 5.91566 12.691 5.72409 12.7704C5.28602 12.9524 4.84383 13.089 4.32955 13.187C4.53554 12.4864 4.47444 11.6844 4.11464 10.9584L3.59967 9.93702C3.37103 9.36902 3.23507 8.67968 3.23507 7.99968C3.23507 5.05434 5.69457 2.66634 8.72808 2.66634ZM5.98158 7.33301C5.60256 7.33301 5.29495 7.63168 5.29495 7.99968C5.29495 8.36768 5.60256 8.66635 5.98158 8.66635C6.36059 8.66635 6.6682 8.36768 6.6682 7.99968C6.6682 7.63168 6.36059 7.33301 5.98158 7.33301ZM8.72808 7.33301C8.34907 7.33301 8.04146 7.63168 8.04146 7.99968C8.04146 8.36768 8.34907 8.66635 8.72808 8.66635C9.1071 8.66635 9.41471 8.36768 9.41471 7.99968C9.41471 7.63168 9.1071 7.33301 8.72808 7.33301ZM11.4746 7.33301C11.0956 7.33301 10.788 7.63168 10.788 7.99968C10.788 8.36768 11.0956 8.66635 11.4746 8.66635C11.8536 8.66635 12.1612 8.36768 12.1612 7.99968C12.1612 7.63168 11.8536 7.33301 11.4746 7.33301Z" fill="#191919"/>
</svg>
