<svg width="23" height="23" viewBox="0 0 23 23" fill="none" xmlns="http://www.w3.org/2000/svg">
<rect width="23" height="23" rx="11.5" fill="#FF8A3D"/>
<path d="M14.1188 5.25H8.88125C6.60625 5.25 5.25 6.60625 5.25 8.88125V14.1188C5.25 16.3938 6.60625 17.75 8.88125 17.75H14.1188C16.3938 17.75 17.75 16.3938 17.75 14.1188V8.88125C17.75 6.60625 16.3938 5.25 14.1188 5.25ZM10.2313 13.3125L8.825 14.7187C8.73125 14.8125 8.6125 14.8563 8.49375 14.8563C8.375 14.8563 8.25 14.8125 8.1625 14.7187L7.69375 14.25C7.50625 14.0687 7.50625 13.7688 7.69375 13.5875C7.875 13.4063 8.16875 13.4063 8.35625 13.5875L8.49375 13.725L9.56875 12.65C9.75 12.4688 10.0438 12.4688 10.2313 12.65C10.4125 12.8313 10.4125 13.1312 10.2313 13.3125ZM10.2313 8.9375L8.825 10.3437C8.73125 10.4375 8.6125 10.4812 8.49375 10.4812C8.375 10.4812 8.25 10.4375 8.1625 10.3437L7.69375 9.875C7.50625 9.69375 7.50625 9.39375 7.69375 9.2125C7.875 9.03125 8.16875 9.03125 8.35625 9.2125L8.49375 9.35L9.56875 8.275C9.75 8.09375 10.0438 8.09375 10.2313 8.275C10.4125 8.45625 10.4125 8.75625 10.2313 8.9375ZM14.975 14.3875H11.6938C11.4375 14.3875 11.225 14.175 11.225 13.9187C11.225 13.6625 11.4375 13.45 11.6938 13.45H14.975C15.2375 13.45 15.4437 13.6625 15.4437 13.9187C15.4437 14.175 15.2375 14.3875 14.975 14.3875ZM14.975 10.0125H11.6938C11.4375 10.0125 11.225 9.8 11.225 9.54375C11.225 9.2875 11.4375 9.075 11.6938 9.075H14.975C15.2375 9.075 15.4437 9.2875 15.4437 9.54375C15.4437 9.8 15.2375 10.0125 14.975 10.0125Z" fill="white"/>
</svg>
