<svg width="23" height="23" viewBox="0 0 23 23" fill="none" xmlns="http://www.w3.org/2000/svg">
<rect width="23" height="23" rx="11.5" fill="#FF8A3D"/>
<path d="M13.7438 11.75V14.2937C13.7438 14.5187 13.7188 14.7312 13.6625 14.925C13.4313 15.8437 12.6688 16.4188 11.6188 16.4188H9.91875L8.03125 17.675C7.75 17.8687 7.375 17.6625 7.375 17.325V16.4188C6.7375 16.4188 6.20625 16.2063 5.8375 15.8375C5.4625 15.4625 5.25 14.9312 5.25 14.2937V11.75C5.25 10.5625 5.9875 9.74375 7.125 9.6375C7.20625 9.63125 7.2875 9.625 7.375 9.625H11.6188C12.8938 9.625 13.7438 10.475 13.7438 11.75Z" fill="white"/>
<path d="M15.0938 13.75C15.8875 13.75 16.5562 13.4875 17.0187 13.0188C17.4875 12.5563 17.75 11.8875 17.75 11.0938V7.90625C17.75 6.4375 16.5625 5.25 15.0938 5.25H9.78125C8.3125 5.25 7.125 6.4375 7.125 7.90625V8.375C7.125 8.55 7.2625 8.6875 7.4375 8.6875H11.6187C13.3125 8.6875 14.6813 10.0562 14.6813 11.75V13.4375C14.6813 13.6125 14.8188 13.75 14.9938 13.75H15.0938V13.75Z" fill="white"/>
</svg>
