<?xml version="1.0" encoding="UTF-8"?>
<svg id="Layer_2" data-name="Layer 2" xmlns="http://www.w3.org/2000/svg" viewBox="0 0 493.73 54.42">
  <defs>
    <style>
      .cls-1 {
        fill: #ff8d42;
      }
    </style>
  </defs>
  <g id="Layer_1-2" data-name="Layer 1">
    <path class="cls-1" d="m0,21.18v-11.28C0,5.16,2.28,3.12,7.68,3.12h18.18c1.5,0,2.64.84,2.64,2.58s-1.14,2.52-2.64,2.52H8.34c-1.98,0-2.7.78-2.7,2.52v9.6c0,1.74.72,2.52,2.7,2.52h20.88c1.5,0,2.64.84,2.64,2.52s-1.14,2.58-2.64,2.58H7.68c-5.4,0-7.68-2.04-7.68-6.78Zm30.42,33.24H14.1c-8.46,0-13.56-4.26-13.56-10.38s5.1-10.44,13.56-10.44h16.32c8.46,0,13.56,4.26,13.56,10.44s-5.1,10.38-13.56,10.38Zm-16.32-4.98h16.32c4.56,0,7.62-2.1,7.62-5.4s-3.06-5.46-7.62-5.46H14.1c-4.5,0-7.62,2.1-7.62,5.46s3.12,5.4,7.62,5.4Zm34.02-31.02h-5.28v10.5c0,1.44-1.2,2.58-2.82,2.58-1.74,0-2.82-1.14-2.82-2.58V4.32c0-1.44,1.2-2.58,2.82-2.58,1.74,0,2.82,1.14,2.82,2.58v9h5.28c1.5,0,2.64.84,2.64,2.52s-1.14,2.58-2.64,2.58Z"/>
    <path class="cls-1" d="m78.9,31.14c-4.14-2.64-9.36-7.56-12.6-12.12-2.1,5.22-5.76,10.5-9.66,13.74-.96.78-2.64.78-3.84-.42s-.84-2.88.06-3.72c6.66-5.88,10.74-14.88,11.22-24.42.06-1.44,1.2-2.52,2.82-2.46,1.74.06,2.94,1.26,2.82,2.7-.18,2.58-.6,5.58-1.32,8.34,3.36,5.52,8.46,10.5,13.74,13.92,1.08.72,1.62,2.4.66,3.78s-2.76,1.38-3.9.66Zm-17.58,14.52c0,1.62.84,2.58,2.52,2.58h32.94c1.5,0,2.64.78,2.64,2.52s-1.14,2.52-2.64,2.52h-33.54c-5.28,0-7.56-2.4-7.56-7.26v-7.08c0-1.44,1.2-2.58,2.82-2.58,1.74,0,2.82,1.14,2.82,2.58v6.72Zm31.02-7.02V4.32c0-1.44,1.2-2.58,2.82-2.58,1.74,0,2.82,1.14,2.82,2.58v34.32c0,1.44-1.2,2.58-2.82,2.58-1.74,0-2.82-1.14-2.82-2.58Z"/>
    <path class="cls-1" d="m108.06,26.82h44.94c1.5,0,2.64.84,2.64,2.58s-1.14,2.52-2.64,2.52h-44.94c-1.5,0-2.64-.78-2.64-2.52s1.14-2.58,2.64-2.58Zm38.82-15.54c0-1.98-1.02-3.06-3-3.06h-33c-1.5,0-2.64-.78-2.64-2.52s1.14-2.58,2.64-2.58h33.24c5.64,0,8.4,3.06,8.4,7.98v10.08c0,1.44-1.2,2.58-2.82,2.58-1.74,0-2.82-1.14-2.82-2.58v-9.9Zm-32.7,33.84c0,1.98,1.02,3.06,3,3.06h33.6c1.5,0,2.64.78,2.64,2.52s-1.14,2.58-2.64,2.58h-33.84c-5.64,0-8.4-3.06-8.4-7.98v-6.6c0-1.44,1.2-2.58,2.82-2.58,1.74,0,2.82,1.14,2.82,2.58v6.42Z"/>
    <path class="cls-1" d="m188.82,50.16c-4.74-5.4-9.06-12.3-12-18.72-2.16,7.26-5.76,14.16-11.16,19.62-.96.96-2.7,1.26-4.02.24-1.26-.96-1.38-2.76-.42-3.72,9-8.94,12.42-21.78,12.6-34.26h-9.48c-1.5,0-2.64-.78-2.64-2.52s1.14-2.58,2.64-2.58h9.48V2.58c0-1.44,1.2-2.58,2.82-2.58,1.74,0,2.82,1.14,2.82,2.58v5.64h9.66c1.5,0,2.64.84,2.64,2.58s-1.14,2.52-2.64,2.52h-9.66c-.06,2.88-.24,5.82-.66,8.7,2.58,8.4,7.8,17.64,14.1,24.54.9.96,1.02,2.7-.18,3.78-1.2,1.08-3,.9-3.9-.18Zm1.44-26.34h10.08V4.32c0-1.44,1.2-2.58,2.82-2.58,1.74,0,2.82,1.14,2.82,2.58v47.28c0,1.44-1.2,2.58-2.82,2.58-1.74,0-2.82-1.14-2.82-2.58v-22.74h-10.08c-1.5,0-2.64-.78-2.64-2.52s1.14-2.52,2.64-2.52Z"/>
    <path class="cls-1" d="m236.28,13.86v9h6.48V4.56c0-1.44,1.2-2.58,2.82-2.58,1.74,0,2.82,1.14,2.82,2.58v46.44c0,1.44-1.2,2.58-2.82,2.58-1.74,0-2.82-1.14-2.82-2.58v-23.04h-6.48v12.96c0,7.86-4.8,11.22-10.44,11.22s-10.44-3.36-10.44-11.22V13.86c0-7.92,4.8-11.28,10.44-11.28s10.44,3.36,10.44,11.28Zm-15.24,0v27.06c0,4.5,1.98,6.18,4.8,6.18s4.8-1.68,4.8-6.18V13.86c0-4.5-1.98-6.18-4.8-6.18s-4.8,1.68-4.8,6.18Zm33.3,37.74V4.32c0-1.44,1.2-2.58,2.82-2.58,1.74,0,2.82,1.14,2.82,2.58v47.28c0,1.44-1.2,2.58-2.82,2.58-1.74,0-2.82-1.14-2.82-2.58Z"/>
    <path class="cls-1" d="m283.5,4.98c-.06,4.32-.48,10.02-1.14,15,2.58,9.78,7.38,19.26,13.86,26.16.96,1.02,1.08,2.82-.12,3.9-1.2,1.08-3,.96-3.96-.06-4.86-5.28-8.94-12.36-11.7-19.32-1.62,6.96-4.08,13.98-7.14,19.68-.66,1.26-2.4,1.86-3.9,1.08-1.44-.78-1.8-2.46-1.2-3.6,6.84-12.9,9.36-28.08,9.66-43.02,0-1.44,1.2-2.52,2.82-2.52,1.74,0,2.82,1.26,2.82,2.7Zm10.8,17.76h14.04V4.32c0-1.44,1.2-2.58,2.82-2.58,1.74,0,2.82,1.14,2.82,2.58v47.28c0,1.44-1.2,2.58-2.82,2.58-1.74,0-2.82-1.14-2.82-2.58v-23.82h-14.04c-1.5,0-2.64-.78-2.64-2.52s1.14-2.52,2.64-2.52Z"/>
    <path class="cls-1" d="m344.58,3.12h13.56c4.44,0,6.48,2.04,6.48,5.88v15.9c0,3.84-2.04,5.88-6.48,5.88h-13.56c-4.44,0-6.48-2.04-6.48-5.88v-15.9c0-3.84,2.04-5.88,6.48-5.88Zm.3,42.54c0,1.62.84,2.58,2.52,2.58h32.34c1.5,0,2.64.78,2.64,2.52s-1.14,2.52-2.64,2.52h-32.94c-5.28,0-7.56-2.4-7.56-7.26v-7.08c0-1.44,1.2-2.58,2.82-2.58,1.74,0,2.82,1.14,2.82,2.58v6.72Zm.48-19.98h12c1.08,0,1.62-.54,1.62-1.56v-14.34c0-1.02-.54-1.56-1.62-1.56h-12c-1.08,0-1.62.54-1.62,1.56v14.34c0,1.02.54,1.56,1.62,1.56Zm40.86-3h-5.28v15.96c0,1.44-1.2,2.58-2.82,2.58-1.74,0-2.82-1.14-2.82-2.58V4.32c0-1.44,1.2-2.58,2.82-2.58,1.74,0,2.82,1.14,2.82,2.58v13.26h5.28c1.5,0,2.64.84,2.64,2.58s-1.14,2.52-2.64,2.52Z"/>
    <path class="cls-1" d="m392.1,42.6V5.4c0-1.44,1.2-2.58,2.82-2.58,1.74,0,2.82,1.14,2.82,2.58v36.54c0,3.36,1.32,4.56,4.74,4.56h18.84c1.5,0,2.64.84,2.64,2.52s-1.14,2.58-2.64,2.58h-19.32c-6.84,0-9.9-2.64-9.9-9Zm48.12-14.82h-5.28v23.82c0,1.44-1.2,2.58-2.82,2.58-1.74,0-2.82-1.14-2.82-2.58V4.32c0-1.44,1.2-2.58,2.82-2.58,1.74,0,2.82,1.14,2.82,2.58v18.42h5.28c1.5,0,2.64.84,2.64,2.52s-1.14,2.52-2.64,2.52Z"/>
    <path class="cls-1" d="m491.09,51.6h-44.94c-1.5,0-2.64-.78-2.64-2.52s1.14-2.58,2.64-2.58h8.94v-10.62c0-1.44,1.2-2.58,2.82-2.58,1.74,0,2.82,1.14,2.82,2.58v10.62h15.78v-10.62c0-1.44,1.2-2.58,2.82-2.58,1.74,0,2.82,1.14,2.82,2.58v10.62h8.94c1.5,0,2.64.84,2.64,2.58s-1.14,2.52-2.64,2.52Zm-15.66-21.36h-13.56c-9.6,0-16.38-5.64-16.38-14.1s6.78-14.1,16.38-14.1h13.56c9.54,0,16.32,5.64,16.32,14.1s-6.78,14.1-16.32,14.1Zm-13.56-5.1h13.56c6.18,0,10.38-3.66,10.38-9s-4.2-9.06-10.38-9.06h-13.56c-6.18,0-10.44,3.66-10.44,9.06s4.26,9,10.44,9Z"/>
  </g>
</svg>