<?xml version="1.0" encoding="UTF-8"?>
<svg id="Layer_2" data-name="Layer 2" xmlns="http://www.w3.org/2000/svg" viewBox="0 0 489.26 50.59">
  <defs>
    <style>
      .cls-1 {
        fill: #ff8d42;
      }
    </style>
  </defs>
  <g id="Layer_1-2" data-name="Layer 1">
    <g>
      <path class="cls-1" d="m24.57,21.16c1.56.66,1.8,2.4,1.74,3.24-.3,3.12-4.08,3.78-7.62,3.78h-10.26c-2.88.06-6.06.06-7.32-1.86C-.27,24.22.03,19.48.03,19.24l.12-10.8c0-.48,0-2.82.6-3.84.72-1.14,1.38-1.62,2.64-1.8.9-.18,2.04-.24,3.48-.24.78,0,10.38.12,11.16.24,2.1,0,4.62-.06,5.88,1.98.9,1.38.84,3.12-.12,4.44-.9,1.32-2.34,1.44-3.66,1.44l-11.76-.06c.18,0-.06,2.04-.12,4.62,0,2.94.12,4.92.24,5.04,2.1.18,9.6.24,11.7.18,1.38,0,2.82.06,4.38.72Zm-3.06,10.26c11.04,0,20.04,1.26,20.04,9.36s-9,9.36-20.04,9.36S1.47,48.76,1.47,40.78c0-7.26,9-9.36,20.04-9.36Zm0,6.24c-5.58,0-11.58.36-11.58,3.12,0,2.46,6,3.06,11.58,3.06s11.94.18,11.94-3.06c0-2.76-6.36-3.12-11.94-3.12Zm18.36-17.34v5.46c-.06.84-.18,1.8-.66,2.7-.24.48-.6.9-1.02,1.2-.6.42-1.56.6-2.22.6-.6,0-1.44-.12-1.92-.42-1.62-.96-1.86-3.18-1.86-3.24V6.22c-.06-.3.06-2.16.54-3.12.36-.78,1.5-1.32,2.64-1.44,1.38-.18,2.88.18,3.54.9.96,1.26.96,2.4.96,4.56v6.54c.66.06,3.9.12,4.62.3,1.56.3,2.1.96,2.28,1.8.24.84.3,2.22-.18,3-.96,1.56-3,1.5-5.34,1.56h-1.38Z"/>
      <path class="cls-1" d="m50.61,27.76c-1.32-3.24,2.34-6.36,4.14-8.52,1.38-1.68,2.64-3.36,3.96-5.1.96-1.32,2.28-3.36,2.4-5.1.06-.96.18-3.3.42-4.2.48-1.56,1.44-2.1,3.66-2.1,1.26,0,3.24.36,3.78,1.62.6,1.44,0,3.54.48,5.04.36,1.2,1.32,2.52,2.16,3.78,1.5,2.16,3.12,4.98,4.38,6.72,1.26,1.68,2.64,3.48,3.06,5.52.78,3.48-3.66,4.86-5.88,2.58-2.94-3-5.16-6.72-7.74-10.02-.06-.06-7.02,8.4-7.62,9.12-.84,1.02-2.04,1.92-3.36,2.22-.9.18-1.86.18-2.64-.18-.54-.24-.96-.72-1.2-1.38Zm43.2,17.52c.18,1.5-.06,2.7-.78,3.54-.96,1.14-2.4,1.2-2.46,1.2h-30.6c-3.24,0-5.22-1.08-5.22-2.88v-8.34c-.06-.9-.06-2.64,0-3.54.18-1.68,1.86-2.82,3.66-2.82.42,0,1.08.06,1.5.18,2.16.66,2.28,3.3,2.4,5.1.06.66-.06,4.74,0,5.16.24.06,1.08.24,4.02.24,2.58,0,4.92-.12,4.98-.12h19.8c.06.06,2.46.6,2.7,2.28Zm-1.02-17.22c0,.06-.24,2.4-1.8,3.42-.54.3-1.08.48-1.68.48-.72,0-1.38-.24-1.98-.66-.42-.3-.78-.72-1.02-1.26-1.2-2.4-.72-5.94-.72-8.58.06-3.42.06-9.3.06-12.66v-.78c-.06-.9-.06-1.92.18-2.82.18-.66.54-1.26,1.08-1.92.66-.78,1.92-1.2,3.24-1.02,1.14.18,2.04.78,2.4,1.56.48,1.02.3,3,.24,3.3v20.94Z"/>
      <path class="cls-1" d="m162.45,28.36c0,.9-.42,1.8-1.2,2.52-1.26,1.08-3.24,1.02-4.86.96-.36-.06-.72-.06-1.08-.06h-33.06c-.12,0-2.88.06-4.02-1.14-.48-.54-.72-1.32-.72-2.1,0-.84.3-1.56.78-2.04,1.02-.96,2.16-1.68,3.36-1.8.24,0,.48.06.72,0,1.14-.12,2.46.06,3.78,0,4.14-.12,8.4,0,13.02,0,5.04,0,10.98-.12,16.38,0h.3c2.76,0,6.6-.66,6.6,3.66ZM120.33,7.96c.3-1.2,1.2-2.28,2.34-2.88,1.86-1.02,3.96-1.02,6-1.02.66-.06,1.32-.06,1.98-.06.66-.06,1.32-.06,2.04-.06,1.26,0,12.78.06,13.98.12,1.26.06,2.52.12,3.78.12,1.92,0,3.84.18,5.7.72,1.74.54,1.68,1.86,1.92,3.48.54,3.54.3,6.24-.06,9.78-.18,1.56-.36,2.94-1.92,3.6-1.26.48-3.48.78-4.5-.36-.84-.9-.84-3.18-.96-4.38-.12-1.08.3-3.12-.36-3.96-1.14-1.38-3.96-.96-5.46-.96h-15.24c-.48,0-1.14.06-1.8.12-.72.06-1.74.06-2.76,0-2.64-.24-5.52-1.2-4.68-4.26Zm38.76,36.78c.24,1.5,0,2.7-.72,3.54-.9,1.14-2.22,1.2-2.28,1.2h-30.36c-3.06,0-4.92-1.08-4.92-2.88v-5.34c-.06-.9-.06-1.8,0-2.7.12-1.68,1.38-2.82,3.06-2.82.42,0,1.26.06,1.62.18,2.04.66,2.16,2.7,2.28,4.5,0,.66.06,1.38.24,1.92.18.06,1.38.24,4.2.24,2.4,0,4.62-.12,4.68-.12h19.62c.12.06,2.34.6,2.58,2.28Z"/>
      <path class="cls-1" d="m179.24,28.6v-13.56c-.36.12-.72,0-1.08,0h-1.62c-2.82,0-5.04-.12-5.58-.24-1.44-.3-2.46-1.02-2.94-2.46-.12-.54-.24-1.02-.12-1.62,0-.48.24-.96.6-1.5.24-.36.78-.72,1.26-.96.48-.36.96-.48,1.44-.6h7.92c0-.9.12-2.64.12-3.36.18-1.02.54-1.86.9-2.58.48-.78,1.2-1.26,2.1-1.5.84-.36,1.8-.24,2.7.12.6.24,1.2.72,1.44,1.26.42.48.78,1.08.9,1.68.12.66.24,1.38.24,2.1v2.28h3.66c1.62,0,3.36.12,4.5.24,1.08.24,2.1.84,2.7,1.86.36.6.48,1.08.48,1.68.12.48,0,1.02-.24,1.5-.48.96-1.44,1.56-2.82,1.86-.84.12-1.98.12-3.18.24-1.26,0-3.12.12-5.1,0,0,1.32-.12,3.66,0,4.62v6.6c0,.36-.12.72,0,1.2v.96c.36.3.72.9,1.32,1.5.54.48.9.96,1.26,1.38.36.48.72.96,1.2,1.44.42.36.78,1.02,1.26,1.5.24.36.48.72.72.96.24.36.48.78.6,1.02.78.96,1.5,1.92,2.22,3.18.9,1.08,1.38,2.34,1.62,3.42.12.54.12,1.14,0,1.74-.12.6-.36,1.08-.84,1.62-.54.48-1.26.72-2.22.72-.9,0-1.62-.24-2.46-.6-.78-.48-1.38-1.02-1.98-1.5-.72-.72-1.38-1.62-1.98-2.34-.6-.72-1.2-1.56-1.86-2.46-.48-.48-.96-1.08-1.44-1.74-.48-.72-1.14-1.2-1.62-1.68-.48.6-.96,1.2-1.44,1.86-.54.6-1.02,1.2-1.5,1.8-.48.78-1.14,1.62-1.74,2.34-.48.78-1.08,1.62-1.86,2.34-1.56,1.62-2.94,2.1-4.38,2.1-.36,0-.78,0-1.14-.12-.84-.24-1.44-.72-1.86-1.62-.24-.6-.36-1.2-.24-1.92.12-.78.24-1.5.66-1.98.24-.66.6-1.26.96-1.86.36-.48.72-1.08,1.26-1.62.24-.24.48-.6.72-.84l.72-1.08c.24-.54.48-.78,1.14-1.62.6-.72,1.2-1.5,1.68-2.1.66-.72,1.26-1.5,1.74-2.1.48-.48.96-1.32,1.2-1.56Zm19.14-.18c-2.76-.18-5.22-2.22-4.38-5.28.18-.6.78-1.44,1.26-1.86.48-.36,1.02-.66,1.68-.78,1.26-.18,4.56-.06,5.88-.18h.18v.96c.06-1.98.06-3.06,0-5.1,0-2.04-.06-4.14,0-6.12v-.84c0-2.1.12-5.22,1.56-6.66.54-.48,1.14-.78,1.92-.78h.12c3.9.18,4.32,4.86,4.32,7.38v36c0,.12,0,3.18-1.38,4.44-.54.54-1.8.9-2.64.9-.9,0-1.74-.36-2.28-.96-1.02-1.08-1.14-2.34-1.26-3.66,0-.24-.06-.48-.06-.78-.12-1.26-.12-2.76-.18-4.2-.06-.9-.06-1.74-.06-2.58v-1.38c0-1.68-.06-5.28-.06-6.96,0-.42.06-.96-.12-1.32-1.08-.18-3.42-.12-4.5-.24Z"/>
      <path class="cls-1" d="m252.2,47.32c-.42,1.2-1.32,2.1-3.06,2.1-.48,0-1.2-.12-1.62-.42-1.62-1.02-1.68-4.74-1.68-5.94v-14.34l-4.38-.12c-.24,4.92-.6,9.96-3.06,14.04-1.62,2.58-3.96,4.26-6.48,4.8-2.28.48-4.86.18-6.96-1.08-2.04-1.26-3.18-3.24-4.14-5.76-.72-1.86-1.2-3.9-1.38-5.94-.24-3.36-.36-5.52-.36-8.88,0-2.22.12-4.5.3-6.72.18-1.8.3-3.6.66-5.4.24-1.44.42-2.64.96-4.02.6-1.32,1.32-2.52,2.22-3.48,1.68-1.8,3.6-2.76,5.7-3.06.48-.06.96-.06,1.44-.06.96,0,1.86.06,2.76.24,1.38.18,2.7.9,3.78,2.1,3.36,3.78,4.08,10.02,4.44,15.48h4.5v-12.78c0-1.02-.06-2.16.18-3.18.12-.36.24-.72.42-1.08.48-.78.84-1.2,1.74-1.5.36-.12.78-.18,1.14-.18,1.32,0,2.34.66,3,1.8.6,1.02.54,3.9.54,4.2.06,29.16,0,34.5,0,34.5,0,1.98-.06,2.82-.66,4.68Zm-20.1-8.58c2.58-2.7,2.16-11.34,2.04-15.18-.06-3-.06-6.96-1.26-9.48-.66-1.32-1.62-2.1-2.64-1.98-1.08.12-2.1.96-2.64,2.58-.18.36-.3.84-.42,1.26-.48,1.44-.66,3.12-.72,4.74-.12,1.68-.24,3.3-.18,4.98,0,1.56-.12,3.06,0,4.62.24,4.14.72,9.18,3.9,9.18.6,0,1.44-.18,1.92-.72Zm29.34,10.32c-.84.54-1.38.66-2.4.42-2.4-.54-2.88-3.18-2.88-5.22V8.74c-.06-1.8,0-4.8,1.08-5.88.9-.78,1.86-.9,2.94-.9,1.38,0,1.98.84,2.46,2.1.72,1.68.66,3.48.72,5.28v.3c.18,6.06,0,12.3,0,17.94v14.46c0,2.1,0,4.02-.78,5.7-.24.54-.6.96-1.14,1.32Z"/>
      <path class="cls-1" d="m280.64,11.38c0-1.2,0-2.28.24-3.48.36-2.22,1.08-3.78,3.84-3.9.24,0,1.38.12,1.74.24,1.92.84,2.1,3.42,2.22,4.98.18,1.8,0,3.24,0,5.04.18,2.16,0,4.32,0,6.54,0,1.44.18,3,.3,4.44.12,2.04,1.26,3.84,2.34,5.52,1.08,2.1,2.88,4.74,3.96,6.66.6,1.08,1.32,2.16,1.8,3.24.6,1.32,1.2,3,.6,4.38-.36.84-1.44,1.56-2.4,1.68-1.2.12-1.92-.24-2.76-1.08-1.56-1.56-3.6-4.02-4.98-5.82-.24-.36-3-4.08-3.12-4.08-.12.12-.24.36-.48.6-2.52,2.76-4.32,5.88-6.96,8.58-.6.6-1.38,1.08-2.22,1.32-.36.12-.72.24-1.2.24-.84,0-1.68-.36-2.28-1.08-.72-.6-1.08-1.44-1.08-2.46.12-.72.24-1.32.6-1.92,1.8-3.48,4.08-6.72,6.42-10.02.6-.96,1.02-1.92,1.62-2.76.24-.36.6-.84.84-1.32.24-.36.48-.72.6-1.08.12-.36.24-.72.24-1.08.12-.72.12-1.32.12-1.92v-11.46Zm15.36,8.88c.48-.36.96-.72,1.56-.84.84-.12,4.8-.12,7.14,0l-.12-6c-.12-.96-.12-1.68,0-2.64v-2.76c0-.6.12-1.26.12-1.86.12-.6.24-1.08.48-1.68.12-.48.36-.96.72-1.32,1.2-1.08,3.6-1.32,4.92,0,1.44,1.44,1.2,4.38,1.2,6.42v36.48c0,.36,0,.72-.12,1.2,0,.48-.12.96-.36,1.44-.12.48-.36.72-.72,1.08-1.08.96-3.72,1.2-4.8,0-1.44-1.56-1.44-3.24-1.44-5.22v-7.2c0-.72,0-1.56-.12-2.4l.12-7.62c-.48-.12-3.54,0-4.02-.12-.6,0-1.08,0-1.68-.12-.6,0-1.2-.12-1.8-.48-.6-.24-1.08-.6-1.56-.96-.36-.48-.72-.96-.84-1.56-.12-.6-.12-1.32,0-2.04.12-.36.24-.72.6-1.08.24-.24.48-.6.72-.72Z"/>
      <path class="cls-1" d="m346.64,28.12h-.06c-2.82,0-5.88.06-7.14-1.8-1.38-2.1-1.08-6.96-1.08-7.14,0,0,0-1.98.06-4.68.06-2.88.06-5.94.06-5.94,0-.48,0-2.82.6-3.78.72-1.14,1.38-1.56,2.58-1.8.9-.12,3.42-.24,3.42-.24h13.56c1.74,0,3.9.18,5.4,1.14,2.34,1.5,1.74,4.68,1.74,6.96,0,1.26-.06,2.52,0,3.78v3.3c-.06.42,0,.9,0,1.38-.12,1.02,0,2.04,0,3.12,0,1.68-.42,4.38-2.34,5.1-2.1.84-4.44.6-6.6.6-1.14.12-8.88-.06-10.2,0Zm-1.92,18.48v-8.64c-.06-.9-.06-1.8,0-2.7.18-1.68,1.44-2.82,3.24-2.82.42,0,1.74.06,2.16.18,2.1.66,2.22,2.7,2.34,4.5.06.66.12,5.28.24,5.82.24.06,1.08.24,4.02.24,2.58,0,2.82-.12,2.88-.12h19.62c.06.06,2.46.6,2.7,2.28.18,1.5-.06,2.7-.78,3.54-.96,1.14-2.4,1.2-2.46,1.2h-28.5c-3.24,0-5.46-1.68-5.46-3.48Zm4.44-36.36c-.72,0-1.32,0-1.8.12-.66.06-.96.24-1.38.72-.3.42-.3,1.44-.3,1.62v2.52c-.06,1.14-.06,2.28-.06,2.28,0,.06-.12,2.1.6,3,.66.78,2.28.78,3.72.78h.06c2.1-.06,3.06,0,5.22,0,.66,0,1.32.06,1.98-.06.66-.06.84-.42.96-.9.06-.24.12-.48.12-.78.18-.84.24-1.68.24-2.58,0-1.26.06-2.58,0-3.84-.06-.6.06-1.32-.12-1.92-.3-.84-1.14-.84-1.86-.84l-7.38-.12Zm31.5,10.86v6.24c-.06.84-.18,1.8-.66,2.7-.24.48-.6.9-1.02,1.14-.6.42-1.32.66-2.04.66-.6,0-1.2-.18-1.68-.48-1.62-.96-1.86-3.12-1.86-3.18V7.12c0-.36.06-2.16.54-3.12.36-.78,1.26-1.32,2.46-1.44,1.32-.18,2.64.18,3.3.9.48.6.6,1.2.78,1.86.24.78.24,1.74.18,2.58v6.48c.66.06,3.36.18,4.02.36,1.56.3,2.1.9,2.34,1.8.18.84.24,2.22-.24,3-.96,1.56-3,1.56-5.34,1.56h-.78Z"/>
      <path class="cls-1" d="m402.08,34c0,1.14-.12,2.22-.06,3.3,0,.54,0,1.2.42,1.56.48.42,1.26.36,1.86.36.9,0,1.86.06,2.76.06,2.04,0,6.06-.06,8.04.18,1.38.18,2.94.36,4.14,1.14.6.42.9,1.14.96,1.86.06.36.06.72.06,1.14-.06.9-.36,1.74-.96,2.4s-1.38,1.02-2.22,1.2c-1.14.18-2.16.36-3.3.36-.72,0-4.08-.06-4.74-.06h-5.52c-1.56,0-3.06-.24-4.62-.3-1.2-.06-2.58-.42-3.48-1.26-.84-.84-1.26-1.92-1.5-3.06-.48-2.58-.24-5.34-.24-7.98v-14.7c0-1.38.06-2.82,0-4.26,0-.24-.12-5.22,0-7.86.12-1.62.54-3.6,2.58-4.44.9-.3,1.86-.54,2.82-.3.96.24,1.86.84,2.28,1.86.48,1.14.66,2.4.66,3.72,0,.9,0,1.74.06,2.64v22.44Zm32.04-13.5c.36,0,.72.12,1.14.12.42.06.9.12,1.38.18.9.18,1.86.54,2.28,1.44.3.48.42,1.02.42,1.56,0,.6,0,1.14-.18,1.74-.12.6-.3,1.44-.84,1.86-.48.36-1.02.66-1.62.78-1.26.18-3.42,0-4.68.06-.12,0-.18.06-.18.06,0,0-.06,0-.06.24-.06,1.98,0,5.58,0,7.62.06,2.04.06,4.14,0,6.12v.84c0,2.1,0,5.16-1.44,6.6-.48.54-1.14.84-1.92.84,0,0-.06-.06-.12-.06-3.9-.12-4.32-4.8-4.32-7.32V7.54c0-.12-.06-3.12,1.26-4.44.54-.54,1.8-.84,2.7-.84s1.68.36,2.22.9c1.08,1.14,1.14,2.4,1.26,3.72.06.24.06.48.06.72.18,1.32.18,2.82.24,4.26,0,.9.06,1.68.06,2.58-.06.48,0,.9,0,1.32v3.3c0,.42,0,.9.12,1.32,0,.06,1.2.06,1.26.06.3.06.54.12.84.06h.12Z"/>
      <path class="cls-1" d="m484.82,39.58c1.32.12,2.52.42,3.6,1.44.54.48.84,1.2.84,2.04s-.3,2.04-.78,2.58c-1.2,1.26-4.2,1.14-4.32,1.14h-32.94c-.36,0-1.44.06-1.8.06-1.74.06-3.84.18-5.22-.96-.78-.72-1.26-1.62-1.26-2.58,0-1.2.78-2.7,1.98-3.18,1.62-.6,3.36-.48,5.1-.54h.3c1.2,0,3.06-.06,4.32-.06-.06-.48-.06-.84-.06-.84v-5.58s0-1.86,1.44-3.06c-2.94-.72-5.64-2.16-7.56-4.92-1.8-2.46-2.28-5.34-2.28-8.34,0-6.18,3.6-10.5,9.3-12.36,3.78-1.26,7.86-1.56,11.82-1.26,3.24.24,6.66.42,9.66,1.8,1.38.66,2.64,1.5,3.78,2.7,2.82,3,3.72,6.6,3.42,10.56-.48,6.24-4.02,9.84-8.76,11.52.84.48,1.5,1.26,1.56,2.4.06,1.26.12,4.2.12,7.44h2.4c1.44.06,3.36-.12,4.62,0,.24.06.48,0,.72,0Zm-8.4-21.96c-.12-4.14-2.88-6.06-6.66-6.54-4.5-.54-14.34-1.68-15.3,4.74-.54,3.84,1.02,7.2,6.72,7.74,2.82.3,5.76.72,8.58.18,2.76-.54,5.82-1.68,6.54-4.62.12-.48.18-.96.12-1.5Zm-14.94,13.14c.24.42.42.84.48,1.38.06,1.26.12,4.2.12,7.44h7.56c-.06-.54-.06-.9-.06-.9v-5.58s0-1.26.78-2.34c-.72.06-1.44.06-2.16.06-2.1,0-4.38.06-6.72-.06Z"/>
    </g>
  </g>
</svg>