<svg width="72" height="66" viewBox="0 0 72 66" fill="none" xmlns="http://www.w3.org/2000/svg">
<g clip-path="url(#clip0_721_2295)">
<path d="M70.1125 39.6127L52.625 29.0752C52.0125 28.7127 51.325 28.5127 50.6125 28.5127C49.9 28.5127 49.2 28.7002 48.6 29.0752L29.25 40.7377V62.0127C29.25 63.0502 29.6625 64.0377 30.4 64.7752C31.1375 65.5127 32.125 65.9252 33.1625 65.9252H68.1125C69.15 65.9252 70.1375 65.5002 70.8625 64.7752C71.5875 64.0502 72.0125 63.0502 72.0125 62.0252V42.9502C72.0125 42.2877 71.825 41.6252 71.5 41.0502C71.175 40.4752 70.7 39.9877 70.125 39.6377L70.1125 39.6127Z" fill="#F9DAC8"/>
<path d="M1.88719 30.7496L12.3997 24.7996C13.0872 24.4246 13.8497 24.2246 14.6372 24.2246C15.4247 24.2246 16.1872 24.4246 16.8747 24.7996L27.2622 30.6621C27.8872 30.9871 28.3997 31.4871 28.7497 32.0996C29.0997 32.7121 29.2747 33.3996 29.2497 34.1121V62.0246C29.1872 63.0871 28.7247 64.0871 27.9247 64.8121C27.1372 65.5371 26.0997 65.9121 25.0247 65.8746H4.24969C3.17469 65.9121 2.13719 65.5371 1.33719 64.8246C0.549693 64.0746 0.0621931 63.0746 -0.000306919 61.9996V34.0871C-0.0128069 33.4121 0.149693 32.7371 0.487193 32.1496C0.824693 31.5621 1.31219 31.0746 1.89969 30.7371L1.88719 30.7496Z" fill="#77DAA9"/>
<path d="M44.2748 51.0002L31.1623 43.4002C30.5748 43.0627 29.9123 42.8877 29.2373 42.8877C28.5623 42.8877 27.8998 43.0627 27.3123 43.4002L14.2873 51.0002C13.6998 51.3377 13.2123 51.8127 12.8748 52.4002C12.5373 52.9877 12.3623 53.6502 12.3623 54.3252V65.8002H46.1623V54.3252C46.1623 53.6502 45.9998 53.0002 45.6623 52.4127C45.3248 51.8252 44.8498 51.3502 44.2748 51.0127V51.0002Z" fill="#30B575"/>
<path d="M10.4875 35.7129H6.925C6.4125 35.7129 6 36.1254 6 36.6379V42.4629C6 42.9754 6.4125 43.3879 6.925 43.3879H10.4875C11 43.3879 11.4125 42.9754 11.4125 42.4629V36.6379C11.4125 36.1254 11 35.7129 10.4875 35.7129Z" fill="white"/>
<path d="M65.1496 52.0879H61.5871C61.0746 52.0879 60.6621 52.5004 60.6621 53.0129V58.8379C60.6621 59.3504 61.0746 59.7629 61.5871 59.7629H65.1496C65.6621 59.7629 66.0746 59.3504 66.0746 58.8379V53.0129C66.0746 52.5004 65.6621 52.0879 65.1496 52.0879Z" fill="white"/>
<path d="M26.175 54.3125H22.6125C22.1 54.3125 21.6875 54.725 21.6875 55.2375V58.8C21.6875 59.3125 22.1 59.725 22.6125 59.725H26.175C26.6875 59.725 27.1 59.3125 27.1 58.8V55.2375C27.1 54.725 26.6875 54.3125 26.175 54.3125Z" fill="white"/>
<path d="M35.9123 54.3125H32.3498C31.8373 54.3125 31.4248 54.725 31.4248 55.2375V58.8C31.4248 59.3125 31.8373 59.725 32.3498 59.725H35.9123C36.4248 59.725 36.8373 59.3125 36.8373 58.8V55.2375C36.8373 54.725 36.4248 54.3125 35.9123 54.3125Z" fill="white"/>
<path d="M40.5001 2.85C38.0501 4.2875 36.0126 6.3125 34.5501 8.75C33.0876 11.1875 32.2751 13.95 32.1626 16.775C31.6626 30.35 44.5626 34.85 50.7626 51.0375C56.4376 35.5375 68.6251 30.7625 69.3626 18.475C69.7626 4.9875 54.1126 -5.1875 40.5001 2.85Z" fill="#FE9053"/>
<path d="M50.7001 25.1121C49.3001 25.1121 47.9251 24.7246 46.7501 23.9496C45.5751 23.1746 44.6626 22.0746 44.1251 20.7871C43.5751 19.4996 43.4376 18.0746 43.7 16.6996C43.9625 15.3246 44.6376 14.0621 45.6251 13.0621C46.6126 12.0621 47.8751 11.3871 49.2501 11.1121C50.6251 10.8371 52.05 10.9746 53.3375 11.4996C54.6375 12.0371 55.7376 12.9371 56.5251 14.0996C57.3001 15.2621 57.7251 16.6371 57.7251 18.0371C57.7251 19.8996 56.9876 21.6871 55.6751 23.0121C54.3626 24.3371 52.5751 25.0871 50.7126 25.0996L50.7001 25.1121Z" fill="white"/>
</g>
<defs>
<clipPath id="clip0_721_2295">
<rect width="72" height="65.9125" fill="white"/>
</clipPath>
</defs>
</svg>
