<svg width="17" height="16" viewBox="0 0 17 16" fill="none" xmlns="http://www.w3.org/2000/svg">
<path d="M9.67974 11.6134H7.9563C6.83024 11.6134 5.91702 10.6934 5.91702 9.56005C5.91702 9.28672 6.15048 9.06005 6.43199 9.06005C6.71351 9.06005 6.94696 9.28672 6.94696 9.56005C6.94696 10.1401 7.40014 10.6134 7.9563 10.6134H9.67974C10.126 10.6134 10.4968 10.2267 10.4968 9.76005C10.4968 9.18005 10.284 9.06672 9.93379 8.94672L7.16668 8.00005C6.63111 7.82005 5.91016 7.43339 5.91016 6.24005C5.91016 5.21339 6.74097 4.38672 7.75718 4.38672H9.48062C10.6067 4.38672 11.5199 5.30672 11.5199 6.44005C11.5199 6.71339 11.2864 6.94005 11.0049 6.94005C10.7234 6.94005 10.49 6.71339 10.49 6.44005C10.49 5.86005 10.0368 5.38672 9.48062 5.38672H7.75718C7.31088 5.38672 6.9401 5.77339 6.9401 6.24005C6.9401 6.82005 7.15295 6.93339 7.50313 7.05339L10.2702 8.00005C10.8058 8.18005 11.5268 8.56672 11.5268 9.76005C11.5199 10.7801 10.6959 11.6134 9.67974 11.6134Z" fill="#191919"/>
<path d="M8.71858 12.5C8.43707 12.5 8.20361 12.2733 8.20361 12V4C8.20361 3.72667 8.43707 3.5 8.71858 3.5C9.0001 3.5 9.23355 3.72667 9.23355 4V12C9.23355 12.2733 9.0001 12.5 8.71858 12.5Z" fill="#191919"/>
<path d="M8.71864 15.1663C4.64694 15.1663 1.3374 11.953 1.3374 7.99967C1.3374 4.04634 4.64694 0.833008 8.71864 0.833008C12.7903 0.833008 16.0999 4.04634 16.0999 7.99967C16.0999 11.953 12.7903 15.1663 8.71864 15.1663ZM8.71864 1.83301C5.21684 1.83301 2.36734 4.59967 2.36734 7.99967C2.36734 11.3997 5.21684 14.1663 8.71864 14.1663C12.2204 14.1663 15.0699 11.3997 15.0699 7.99967C15.0699 4.59967 12.2204 1.83301 8.71864 1.83301Z" fill="#191919"/>
</svg>
