<svg width="16" height="15" viewBox="0 0 16 15" fill="none" xmlns="http://www.w3.org/2000/svg">
<path d="M11.167 9.40722C11.3986 9.06379 11.3079 8.59766 10.9645 8.36608C10.6211 8.13451 10.1549 8.22519 9.92335 8.56862L11.167 9.40722ZM7.72472 10.3125L7.72471 11.0625L7.72472 10.3125ZM5.52609 8.56861C5.29451 8.22518 4.82838 8.13451 4.48495 8.36609C4.14152 8.59766 4.05084 9.0638 4.28242 9.40723L5.52609 8.56861ZM7.1873 5.9375C7.1873 5.52329 6.85151 5.1875 6.4373 5.1875C6.02308 5.1875 5.6873 5.52329 5.6873 5.9375H7.1873ZM5.6873 7.1875C5.6873 7.60171 6.02308 7.9375 6.4373 7.9375C6.85151 7.9375 7.1873 7.60171 7.1873 7.1875H5.6873ZM9.76215 5.9375C9.76215 5.52329 9.42636 5.1875 9.01215 5.1875C8.59794 5.1875 8.26215 5.52329 8.26215 5.9375H9.76215ZM8.26215 7.1875C8.26215 7.60171 8.59794 7.9375 9.01215 7.9375C9.42636 7.9375 9.76215 7.60171 9.76215 7.1875H8.26215ZM9.92335 8.56862C9.54585 9.12846 8.85558 9.56252 7.72473 9.5625L7.72471 11.0625C9.28306 11.0625 10.4731 10.4364 11.167 9.40722L9.92335 8.56862ZM7.72473 9.5625C6.59386 9.56248 5.90359 9.12844 5.52609 8.56861L4.28242 9.40723C4.97636 10.4363 6.16639 11.0625 7.72471 11.0625L7.72473 9.5625ZM5.6873 5.9375V7.1875H7.1873V5.9375H5.6873ZM8.26215 5.9375V7.1875H9.76215V5.9375H8.26215ZM13.4118 7.5C13.4118 10.5169 10.8866 13 7.72472 13V14.5C11.6731 14.5 14.9118 11.3867 14.9118 7.5H13.4118ZM7.72472 13C4.5628 13 2.0376 10.5169 2.0376 7.5H0.537598C0.537598 11.3867 3.77639 14.5 7.72472 14.5V13ZM2.0376 7.5C2.0376 4.48314 4.5628 2 7.72472 2V0.5C3.77639 0.5 0.537598 3.6133 0.537598 7.5H2.0376ZM7.72472 2C10.8866 2 13.4118 4.48314 13.4118 7.5H14.9118C14.9118 3.6133 11.6731 0.5 7.72472 0.5V2Z" fill="#191919"/>
</svg>
