<svg width="17" height="16" viewBox="0 0 17 16" fill="none" xmlns="http://www.w3.org/2000/svg">
<path d="M8.23976 15.1669C5.49326 15.1669 3.26172 13.2536 3.26172 10.9003V8.43359C3.26172 8.16026 3.49517 7.93359 3.77669 7.93359C4.05821 7.93359 4.29166 8.16026 4.29166 8.43359C4.29166 10.1803 5.98763 11.5003 8.23976 11.5003C10.4919 11.5003 12.1879 10.1803 12.1879 8.43359C12.1879 8.16026 12.4213 7.93359 12.7028 7.93359C12.9844 7.93359 13.2178 8.16026 13.2178 8.43359V10.9003C13.2178 13.2536 10.9863 15.1669 8.23976 15.1669ZM4.29166 10.9736C4.33972 12.7403 6.09062 14.1669 8.23976 14.1669C10.3889 14.1669 12.1398 12.7403 12.1879 10.9736C11.2953 11.9136 9.8808 12.5003 8.23976 12.5003C6.59872 12.5003 5.19114 11.9136 4.29166 10.9736Z" fill="#191919"/>
<path d="M8.23976 9.16634C6.34467 9.16634 4.64183 8.33967 3.81101 7.00634C3.45397 6.43967 3.26172 5.77968 3.26172 5.09968C3.26172 3.95301 3.79042 2.87301 4.74484 2.05967C5.67865 1.26634 6.92144 0.833008 8.23976 0.833008C9.55809 0.833008 10.794 1.26634 11.7347 2.05301C12.6891 2.87301 13.2178 3.95301 13.2178 5.09968C13.2178 5.77968 13.0256 6.43301 12.6685 7.00634C11.8377 8.33967 10.1349 9.16634 8.23976 9.16634ZM8.23976 1.83301C7.16863 1.83301 6.16616 2.17967 5.41774 2.81967C4.68991 3.43301 4.29166 4.24634 4.29166 5.09968C4.29166 5.59968 4.42898 6.06634 4.68989 6.48634C5.34219 7.52634 6.70172 8.16634 8.23976 8.16634C9.77781 8.16634 11.1373 7.51967 11.7896 6.48634C12.0574 6.06634 12.1879 5.59968 12.1879 5.09968C12.1879 4.24634 11.7896 3.43301 11.0549 2.80634C10.3065 2.17967 9.3109 1.83301 8.23976 1.83301Z" fill="#191919"/>
<path d="M8.23976 12.4997C5.40399 12.4997 3.26172 10.753 3.26172 8.43301V5.09968C3.26172 2.74634 5.49326 0.833008 8.23976 0.833008C9.55809 0.833008 10.794 1.26634 11.7347 2.05301C12.6891 2.87301 13.2178 3.95301 13.2178 5.09968V8.43301C13.2178 10.753 11.0755 12.4997 8.23976 12.4997ZM8.23976 1.83301C6.06316 1.83301 4.29166 3.29968 4.29166 5.09968V8.43301C4.29166 10.1797 5.98763 11.4997 8.23976 11.4997C10.4919 11.4997 12.1879 10.1797 12.1879 8.43301V5.09968C12.1879 4.24634 11.7896 3.43301 11.0549 2.80634C10.3065 2.17967 9.3109 1.83301 8.23976 1.83301Z" fill="#191919"/>
</svg>
